# xmcd
#
# Track frame offsets: 
#        150
#        3085
#        16433
#        38990
#        58808
#        62398
#        82686
#        95547
#        98034
#        118850
#        140069
#        157600
#        160845
#        179148
#        199643
#        231886
#
# Disc length: 3725 seconds
#
# Revision: 5
# Processed by: cddbd v1.5.2PL0 Copyright (c) Steve Scherf et al.
# Submitted via: ExactAudioCopy v1.0b1
#
DISCID=c50e8b10
DTITLE=Kang Ta - Pine Tree
DYEAR=2002
DGENRE=Pop
TTITLE0=Spring
TTITLE1=Happy Happy
TTITLE2=Memories
TTITLE3=Propose
TTITLE4=Summer
TTITLE5=Confession
TTITLE6=The Best
TTITLE7=Autumn
TTITLE8=Memories #2
TTITLE9=Flower
TTITLE10=2032 In Cuba
TTITLE11=Winter
TTITLE12=Nocturne
TTITLE13=One Snowing Day
TTITLE14=Pine Tree
TTITLE15=Bonus
EXTD=YEAR: 2002
EXTT0=
EXTT1=
EXTT2=
EXTT3=
EXTT4=
EXTT5=
EXTT6=
EXTT7=
EXTT8=
EXTT9=
EXTT10=
EXTT11=
EXTT12=
EXTT13=
EXTT14=
EXTT15=
PLAYORDER=
